# Blender v2.93.2 OBJ File: 'fort.blend'
# www.blender.org
mtllib building_types/fort.mtl
o Cube_Cube.001
v -0.691808 0.071141 -0.021983
v -0.691808 1.130073 -0.021983
v -0.691808 0.071141 -1.174857
v -0.691808 1.130073 -1.174857
v 0.392227 0.071141 -0.021983
v 0.392227 1.130073 -0.021983
v 0.392227 0.071141 -1.174857
v 0.392227 1.130073 -1.174857
vt 0.375000 0.000000
vt 0.625000 0.000000
vt 0.625000 0.250000
vt 0.375000 0.250000
vt 0.625000 0.500000
vt 0.375000 0.500000
vt 0.625000 0.750000
vt 0.375000 0.750000
vt 0.625000 1.000000
vt 0.375000 1.000000
vt 0.125000 0.500000
vt 0.125000 0.750000
vt 0.875000 0.500000
vt 0.875000 0.750000
vn -1.0000 0.0000 0.0000
vn 0.0000 0.0000 -1.0000
vn 1.0000 0.0000 0.0000
vn 0.0000 0.0000 1.0000
vn 0.0000 -1.0000 0.0000
vn 0.0000 1.0000 0.0000
usemtl Material.002
s off
f 1/1/1 2/2/1 4/3/1 3/4/1
f 3/4/2 4/3/2 8/5/2 7/6/2
f 7/6/3 8/5/3 6/7/3 5/8/3
f 5/8/4 6/7/4 2/9/4 1/10/4
f 3/11/5 7/6/5 5/8/5 1/12/5
f 8/5/6 4/13/6 2/14/6 6/7/6
o Cube.001_Cube.002
v -0.691808 1.124288 -0.021983
v -0.691808 2.060215 -0.021983
v -0.691808 1.124288 -1.174857
v -0.691808 2.060215 -1.174857
v 0.392227 1.124288 -0.021983
v 0.392227 2.060215 -0.021983
v 0.392227 1.124288 -1.174857
v 0.392227 2.060215 -1.174857
vt 0.375000 0.000000
vt 0.625000 0.000000
vt 0.625000 0.250000
vt 0.375000 0.250000
vt 0.625000 0.500000
vt 0.375000 0.500000
vt 0.625000 0.750000
vt 0.375000 0.750000
vt 0.625000 1.000000
vt 0.375000 1.000000
vt 0.125000 0.500000
vt 0.125000 0.750000
vt 0.875000 0.500000
vt 0.875000 0.750000
vn -1.0000 0.0000 0.0000
vn 0.0000 0.0000 -1.0000
vn 1.0000 0.0000 0.0000
vn 0.0000 0.0000 1.0000
vn 0.0000 -1.0000 0.0000
vn 0.0000 1.0000 0.0000
usemtl Material.001
s off
f 9/15/7 10/16/7 12/17/7 11/18/7
f 11/18/8 12/17/8 16/19/8 15/20/8
f 15/20/9 16/19/9 14/21/9 13/22/9
f 13/22/10 14/21/10 10/23/10 9/24/10
f 11/25/11 15/20/11 13/22/11 9/26/11
f 16/19/12 12/27/12 10/28/12 14/21/12
o Plane
v -0.688194 2.044917 -0.021983
v -0.686912 2.304831 -0.021983
v -0.688194 2.044917 -1.174857
v -0.686912 2.304831 -1.174857
vt 0.000000 0.000000
vt 1.000000 0.000000
vt 1.000000 1.000000
vt 0.000000 1.000000
vn -1.0000 0.0049 0.0000
usemtl Material.009
s off
f 17/29/13 18/30/13 20/31/13 19/32/13
o Plane.001
v 0.385521 2.044917 -0.021983
v 0.386802 2.304831 -0.021983
v 0.385521 2.044917 -1.174857
v 0.386802 2.304831 -1.174857
vt 0.000000 0.000000
vt 1.000000 0.000000
vt 1.000000 1.000000
vt 0.000000 1.000000
vn -1.0000 0.0049 0.0000
usemtl Material.011
s off
f 21/33/14 22/34/14 24/35/14 23/36/14
o Plane.002
v 0.393043 2.034966 -1.170486
v 0.397809 2.294897 -1.172079
v -0.691478 2.054851 -1.170634
v -0.686712 2.314781 -1.172228
vt 0.000000 0.000000
vt 1.000000 0.000000
vt 1.000000 1.000000
vt 0.000000 1.000000
vn -0.0000 0.0061 1.0000
usemtl Material.008
s off
f 25/37/15 26/38/15 28/39/15 27/40/15
o Plane.003
v 0.392698 2.034966 -0.020383
v 0.397464 2.294897 -0.021977
v -0.691823 2.054851 -0.020531
v -0.687057 2.314781 -0.022125
vt 0.000000 0.000000
vt 1.000000 0.000000
vt 1.000000 1.000000
vt 0.000000 1.000000
vn -0.0000 0.0061 1.0000
usemtl Material.010
s off
f 29/41/16 30/42/16 32/43/16 31/44/16
o Cube.002_Cube.003
v -0.144209 2.090200 -0.584418
v -0.144209 2.927330 -0.584418
v -0.144209 2.090200 -0.612235
v -0.144209 2.927330 -0.612235
v -0.104964 2.090200 -0.584418
v -0.104964 2.927330 -0.584418
v -0.104964 2.090200 -0.612235
v -0.104964 2.927330 -0.612235
vt 0.375000 0.000000
vt 0.625000 0.000000
vt 0.625000 0.250000
vt 0.375000 0.250000
vt 0.625000 0.500000
vt 0.375000 0.500000
vt 0.625000 0.750000
vt 0.375000 0.750000
vt 0.625000 1.000000
vt 0.375000 1.000000
vt 0.125000 0.500000
vt 0.125000 0.750000
vt 0.875000 0.500000
vt 0.875000 0.750000
vn -1.0000 0.0000 0.0000
vn 0.0000 0.0000 -1.0000
vn 1.0000 0.0000 0.0000
vn 0.0000 0.0000 1.0000
vn 0.0000 -1.0000 0.0000
vn 0.0000 1.0000 0.0000
usemtl Material.022
s off
f 33/45/17 34/46/17 36/47/17 35/48/17
f 35/48/18 36/47/18 40/49/18 39/50/18
f 39/50/19 40/49/19 38/51/19 37/52/19
f 37/52/20 38/51/20 34/53/20 33/54/20
f 35/55/21 39/50/21 37/52/21 33/56/21
f 40/49/22 36/57/22 34/58/22 38/51/22
o Plane.005
v -0.129398 2.996472 -1.063329
v -0.773427 2.518434 -1.073031
v -0.143553 2.996472 -0.123622
v -0.787582 2.518434 -0.133323
vt 0.000000 0.000000
vt 1.000000 0.000000
vt 1.000000 1.000000
vt 0.000000 1.000000
vn -0.5959 0.8030 -0.0090
usemtl Material.007
s off
f 41/59/23 42/60/23 44/61/23 43/62/23
o Cube.013_Cube.014
v -1.147178 0.169234 -0.612404
v -0.604577 0.806032 -0.641691
v -1.145679 0.169234 -0.584627
v -0.603078 0.806032 -0.613914
v -1.176988 0.194708 -0.610795
v -0.634387 0.831506 -0.640082
v -1.175489 0.194708 -0.583018
v -0.632888 0.831506 -0.612305
vt 0.375000 0.000000
vt 0.625000 0.000000
vt 0.625000 0.250000
vt 0.375000 0.250000
vt 0.625000 0.500000
vt 0.375000 0.500000
vt 0.625000 0.750000
vt 0.375000 0.750000
vt 0.625000 1.000000
vt 0.375000 1.000000
vt 0.125000 0.500000
vt 0.125000 0.750000
vt 0.875000 0.500000
vt 0.875000 0.750000
vn 0.7596 -0.6491 -0.0410
vn 0.0539 0.0000 0.9985
vn -0.7596 0.6491 0.0410
vn -0.0539 0.0000 -0.9985
vn -0.6482 -0.7607 0.0350
vn 0.6482 0.7607 -0.0350
usemtl Material.014
s off
f 45/63/24 46/64/24 48/65/24 47/66/24
f 47/66/25 48/65/25 52/67/25 51/68/25
f 51/68/26 52/67/26 50/69/26 49/70/26
f 49/70/27 50/69/27 46/71/27 45/72/27
f 47/73/28 51/68/28 49/70/28 45/74/28
f 52/67/29 48/75/29 46/76/29 50/69/29
o Cube.012_Cube.013
v -1.126102 0.169234 -0.221919
v -0.583501 0.806032 -0.251205
v -1.124603 0.169234 -0.194142
v -0.582002 0.806032 -0.223428
v -1.155912 0.194708 -0.220310
v -0.613311 0.831506 -0.249596
v -1.154413 0.194708 -0.192533
v -0.611812 0.831506 -0.221819
vt 0.375000 0.000000
vt 0.625000 0.000000
vt 0.625000 0.250000
vt 0.375000 0.250000
vt 0.625000 0.500000
vt 0.375000 0.500000
vt 0.625000 0.750000
vt 0.375000 0.750000
vt 0.625000 1.000000
vt 0.375000 1.000000
vt 0.125000 0.500000
vt 0.125000 0.750000
vt 0.875000 0.500000
vt 0.875000 0.750000
vn 0.7596 -0.6491 -0.0410
vn 0.0539 -0.0000 0.9985
vn -0.7596 0.6491 0.0410
vn -0.0539 0.0000 -0.9985
vn -0.6482 -0.7607 0.0350
vn 0.6482 0.7607 -0.0350
usemtl Material.016
s off
f 53/77/30 54/78/30 56/79/30 55/80/30
f 55/80/31 56/79/31 60/81/31 59/82/31
f 59/82/32 60/81/32 58/83/32 57/84/32
f 57/84/33 58/83/33 54/85/33 53/86/33
f 55/87/34 59/82/34 57/84/34 53/88/34
f 60/81/35 56/89/35 54/90/35 58/83/35
o Cube.011_Cube.012
v -1.166816 0.169234 -0.976245
v -0.624215 0.806032 -1.005531
v -1.165317 0.169234 -0.948468
v -0.622716 0.806032 -0.977754
v -1.196626 0.194708 -0.974636
v -0.654025 0.831506 -1.003922
v -1.195127 0.194708 -0.946859
v -0.652526 0.831506 -0.976145
vt 0.375000 0.000000
vt 0.625000 0.000000
vt 0.625000 0.250000
vt 0.375000 0.250000
vt 0.625000 0.500000
vt 0.375000 0.500000
vt 0.625000 0.750000
vt 0.375000 0.750000
vt 0.625000 1.000000
vt 0.375000 1.000000
vt 0.125000 0.500000
vt 0.125000 0.750000
vt 0.875000 0.500000
vt 0.875000 0.750000
vn 0.7596 -0.6491 -0.0410
vn 0.0539 0.0000 0.9985
vn -0.7596 0.6491 0.0410
vn -0.0539 0.0000 -0.9985
vn -0.6482 -0.7607 0.0350
vn 0.6482 0.7607 -0.0350
usemtl Material.012
s off
f 61/91/36 62/92/36 64/93/36 63/94/36
f 63/94/37 64/93/37 68/95/37 67/96/37
f 67/96/38 68/95/38 66/97/38 65/98/38
f 65/98/39 66/97/39 62/99/39 61/100/39
f 63/101/40 67/96/40 65/98/40 61/102/40
f 68/95/41 64/103/41 62/104/41 66/97/41
o Cube.010_Cube.011
v -1.158102 0.169234 -0.814784
v -0.615501 0.806032 -0.844071
v -1.156602 0.169234 -0.787007
v -0.614001 0.806032 -0.816294
v -1.187912 0.194708 -0.813175
v -0.645311 0.831506 -0.842462
v -1.186412 0.194708 -0.785398
v -0.643811 0.831506 -0.814685
vt 0.375000 0.000000
vt 0.625000 0.000000
vt 0.625000 0.250000
vt 0.375000 0.250000
vt 0.625000 0.500000
vt 0.375000 0.500000
vt 0.625000 0.750000
vt 0.375000 0.750000
vt 0.625000 1.000000
vt 0.375000 1.000000
vt 0.125000 0.500000
vt 0.125000 0.750000
vt 0.875000 0.500000
vt 0.875000 0.750000
vn 0.7596 -0.6491 -0.0410
vn 0.0539 0.0000 0.9985
vn -0.7596 0.6491 0.0410
vn -0.0539 0.0000 -0.9985
vn -0.6482 -0.7607 0.0350
vn 0.6482 0.7607 -0.0350
usemtl Material.013
s off
f 69/105/42 70/106/42 72/107/42 71/108/42
f 71/108/43 72/107/43 76/109/43 75/110/43
f 75/110/44 76/109/44 74/111/44 73/112/44
f 73/112/45 74/111/45 70/113/45 69/114/45
f 71/115/46 75/110/46 73/112/46 69/116/46
f 76/109/47 72/117/47 70/118/47 74/111/47
o Cube.009_Cube.010
v -1.137583 0.169234 -0.434637
v -0.594983 0.806032 -0.463923
v -1.136084 0.169234 -0.406860
v -0.593483 0.806032 -0.436146
v -1.167393 0.194708 -0.433028
v -0.624793 0.831506 -0.462314
v -1.165894 0.194708 -0.405251
v -0.623293 0.831506 -0.434537
vt 0.375000 0.000000
vt 0.625000 0.000000
vt 0.625000 0.250000
vt 0.375000 0.250000
vt 0.625000 0.500000
vt 0.375000 0.500000
vt 0.625000 0.750000
vt 0.375000 0.750000
vt 0.625000 1.000000
vt 0.375000 1.000000
vt 0.125000 0.500000
vt 0.125000 0.750000
vt 0.875000 0.500000
vt 0.875000 0.750000
vn 0.7596 -0.6491 -0.0410
vn 0.0539 -0.0000 0.9985
vn -0.7596 0.6491 0.0410
vn -0.0539 0.0000 -0.9985
vn -0.6482 -0.7607 0.0350
vn 0.6482 0.7607 -0.0350
usemtl Material.015
s off
f 77/119/48 78/120/48 80/121/48 79/122/48
f 79/122/49 80/121/49 84/123/49 83/124/49
f 83/124/50 84/123/50 82/125/50 81/126/50
f 81/126/51 82/125/51 78/127/51 77/128/51
f 79/129/52 83/124/52 81/126/52 77/130/52
f 84/123/53 80/131/53 78/132/53 82/125/53
o Plane.010
v -0.168884 2.993717 -0.133329
v 0.475145 2.515680 -0.123616
v -0.154712 2.993717 -1.073036
v 0.489318 2.515680 -1.063323
vt 0.000000 0.000000
vt 1.000000 0.000000
vt 1.000000 1.000000
vt 0.000000 1.000000
vn 0.5959 0.8030 0.0090
usemtl Material.004
s off
f 85/133/54 86/134/54 88/135/54 87/136/54
o Cube.017_Cube.009
v 0.870658 0.169234 -0.775139
v 0.327269 0.806032 -0.776237
v 0.870714 0.169234 -0.802957
v 0.327325 0.806032 -0.804054
v 0.900512 0.194708 -0.775079
v 0.357122 0.831506 -0.776177
v 0.900568 0.194708 -0.802897
v 0.357178 0.831506 -0.803994
vt 0.375000 0.000000
vt 0.625000 0.000000
vt 0.625000 0.250000
vt 0.375000 0.250000
vt 0.625000 0.500000
vt 0.375000 0.500000
vt 0.625000 0.750000
vt 0.375000 0.750000
vt 0.625000 1.000000
vt 0.375000 1.000000
vt 0.125000 0.500000
vt 0.125000 0.750000
vt 0.875000 0.500000
vt 0.875000 0.750000
vn -0.7607 -0.6491 -0.0015
vn 0.0020 -0.0000 -1.0000
vn 0.7607 0.6491 0.0015
vn -0.0020 0.0000 1.0000
vn 0.6491 -0.7607 0.0013
vn -0.6491 0.7607 -0.0013
usemtl Material.021
s off
f 89/137/55 90/138/55 92/139/55 91/140/55
f 91/140/56 92/139/56 96/141/56 95/142/56
f 95/142/57 96/141/57 94/143/57 93/144/57
f 93/144/58 94/143/58 90/145/58 89/146/58
f 91/147/59 95/142/59 93/144/59 89/148/59
f 96/141/60 92/149/60 90/150/60 94/143/60
o Cube.016_Cube.008
v 0.869889 0.169234 -0.394440
v 0.326500 0.806032 -0.395537
v 0.869945 0.169234 -0.422257
v 0.326556 0.806032 -0.423354
v 0.899742 0.194708 -0.394379
v 0.356353 0.831506 -0.395477
v 0.899799 0.194708 -0.422197
v 0.356409 0.831506 -0.423294
vt 0.375000 0.000000
vt 0.625000 0.000000
vt 0.625000 0.250000
vt 0.375000 0.250000
vt 0.625000 0.500000
vt 0.375000 0.500000
vt 0.625000 0.750000
vt 0.375000 0.750000
vt 0.625000 1.000000
vt 0.375000 1.000000
vt 0.125000 0.500000
vt 0.125000 0.750000
vt 0.875000 0.500000
vt 0.875000 0.750000
vn -0.7607 -0.6491 -0.0015
vn 0.0020 0.0000 -1.0000
vn 0.7607 0.6491 0.0015
vn -0.0020 -0.0000 1.0000
vn 0.6491 -0.7607 0.0013
vn -0.6491 0.7607 -0.0013
usemtl Material.020
s off
f 97/151/61 98/152/61 100/153/61 99/154/61
f 99/154/62 100/153/62 104/155/62 103/156/62
f 103/156/63 104/155/63 102/157/63 101/158/63
f 101/158/64 102/157/64 98/159/64 97/160/64
f 99/161/65 103/156/65 101/158/65 97/162/65
f 104/155/66 100/163/66 98/164/66 102/157/66
o Cube.015_Cube.007
v 0.869562 0.169234 -0.232744
v 0.326173 0.806032 -0.233842
v 0.869619 0.169234 -0.260562
v 0.326229 0.806032 -0.261659
v 0.899416 0.194708 -0.232684
v 0.356026 0.831506 -0.233781
v 0.899472 0.194708 -0.260501
v 0.356082 0.831506 -0.261599
vt 0.375000 0.000000
vt 0.625000 0.000000
vt 0.625000 0.250000
vt 0.375000 0.250000
vt 0.625000 0.500000
vt 0.375000 0.500000
vt 0.625000 0.750000
vt 0.375000 0.750000
vt 0.625000 1.000000
vt 0.375000 1.000000
vt 0.125000 0.500000
vt 0.125000 0.750000
vt 0.875000 0.500000
vt 0.875000 0.750000
vn -0.7607 -0.6491 -0.0015
vn 0.0020 0.0000 -1.0000
vn 0.7607 0.6491 0.0015
vn -0.0020 0.0000 1.0000
vn 0.6491 -0.7607 0.0013
vn -0.6491 0.7607 -0.0013
usemtl Material.019
s off
f 105/165/67 106/166/67 108/167/67 107/168/67
f 107/168/68 108/167/68 112/169/68 111/170/68
f 111/170/69 112/169/69 110/171/69 109/172/69
f 109/172/70 110/171/70 106/173/70 105/174/70
f 107/175/71 111/170/71 109/172/71 105/176/71
f 112/169/72 108/177/72 106/178/72 110/171/72
o Cube.014_Cube.006
v 0.871088 0.169234 -0.988167
v 0.327699 0.806032 -0.989264
v 0.871145 0.169234 -1.015984
v 0.327755 0.806032 -1.017082
v 0.900942 0.194708 -0.988107
v 0.357552 0.831506 -0.989204
v 0.900998 0.194708 -1.015924
v 0.357608 0.831506 -1.017021
vt 0.375000 0.000000
vt 0.625000 0.000000
vt 0.625000 0.250000
vt 0.375000 0.250000
vt 0.625000 0.500000
vt 0.375000 0.500000
vt 0.625000 0.750000
vt 0.375000 0.750000
vt 0.625000 1.000000
vt 0.375000 1.000000
vt 0.125000 0.500000
vt 0.125000 0.750000
vt 0.875000 0.500000
vt 0.875000 0.750000
vn -0.7607 -0.6491 -0.0015
vn 0.0020 0.0000 -1.0000
vn 0.7607 0.6491 0.0015
vn -0.0020 0.0000 1.0000
vn 0.6491 -0.7607 0.0013
vn -0.6491 0.7607 -0.0013
usemtl Material.018
s off
f 113/179/73 114/180/73 116/181/73 115/182/73
f 115/182/74 116/181/74 120/183/74 119/184/74
f 119/184/75 120/183/75 118/185/75 117/186/75
f 117/186/76 118/185/76 114/187/76 113/188/76
f 115/189/77 119/184/77 117/186/77 113/190/77
f 120/183/78 116/191/78 114/192/78 118/185/78
o Cube.003_Cube.005
v 0.870299 0.169234 -0.597113
v 0.326909 0.806032 -0.598211
v 0.870355 0.169234 -0.624931
v 0.326965 0.806032 -0.626028
v 0.900152 0.194708 -0.597053
v 0.356762 0.831506 -0.598151
v 0.900208 0.194708 -0.624871
v 0.356818 0.831506 -0.625968
vt 0.375000 0.000000
vt 0.625000 0.000000
vt 0.625000 0.250000
vt 0.375000 0.250000
vt 0.625000 0.500000
vt 0.375000 0.500000
vt 0.625000 0.750000
vt 0.375000 0.750000
vt 0.625000 1.000000
vt 0.375000 1.000000
vt 0.125000 0.500000
vt 0.125000 0.750000
vt 0.875000 0.500000
vt 0.875000 0.750000
vn -0.7607 -0.6491 -0.0015
vn 0.0020 -0.0000 -1.0000
vn 0.7607 0.6491 0.0015
vn -0.0020 0.0000 1.0000
vn 0.6491 -0.7607 0.0013
vn -0.6491 0.7607 -0.0013
usemtl Material.017
s off
f 121/193/79 122/194/79 124/195/79 123/196/79
f 123/196/80 124/195/80 128/197/80 127/198/80
f 127/198/81 128/197/81 126/199/81 125/200/81
f 125/200/82 126/199/82 122/201/82 121/202/82
f 123/203/83 127/198/83 125/200/83 121/204/83
f 128/197/84 124/205/84 122/206/84 126/199/84
