# Blender v2.83.5 OBJ File: ''
# www.blender.org
mtllib seaport.mtl
o Cylinder_Cylinder.002
v 1.234266 5.123621 0.178514
v 1.310480 0.289241 -0.140334
v 1.670960 0.289241 0.008982
v 1.622038 5.123621 0.465494
v 1.946859 0.289241 0.284881
v 2.096175 0.289241 0.645361
v 1.713022 5.123621 0.972119
v 2.096175 0.289241 1.035542
v 1.822496 0.289241 1.547558
v 1.453921 5.123621 1.401615
v 1.670959 0.289241 1.671921
v 1.234266 5.123621 1.502389
v 1.310480 0.289241 1.821237
v 0.996513 5.123621 1.502389
v 0.920299 0.289241 1.821237
v 0.559819 0.289241 1.671921
v 0.608741 5.123621 1.215409
v 0.283920 0.289241 1.396022
v 0.134604 0.289241 1.035542
v 0.517757 5.123621 0.708784
v 0.134604 0.289241 0.645361
v 0.283920 0.289241 0.284881
v 0.776857 5.123621 0.279288
v 0.559819 0.289241 0.008982
v 0.996513 5.123621 0.178514
v 0.920299 0.289241 -0.140334
vt 0.218750 1.000000
vt 0.218750 0.500000
vt 0.281250 0.500000
vt 0.413698 0.945153
vt 0.288304 0.082377
vt 0.413698 0.082377
vt 0.162911 0.082377
vt 0.162911 0.945153
vt 0.037517 0.082377
vt 0.664485 0.945153
vt 0.476394 0.082377
vt 0.342912 0.451674
vt 0.269731 0.451674
vt 0.202121 0.427582
vt 0.269731 0.135175
vt 0.342912 0.135175
vt 0.410522 0.159267
vt 0.664485 0.082377
vt 0.789878 0.082377
vt 0.801263 0.427582
vt 0.853010 0.383066
vt 0.660472 0.451674
vt 0.343750 0.500000
vt 0.343750 1.000000
vt 0.122369 0.324903
vt 0.150374 0.203784
vt 0.490273 0.261947
vt 0.093750 1.000000
vt 0.031250 0.500000
vt 0.093750 0.500000
vt 0.968750 1.000000
vt 0.915271 0.945153
vt 0.906250 0.500000
vt 0.288304 0.945153
vt 0.031250 1.000000
vt 0.968750 0.500000
vt 0.295919 0.897389
vt 0.295919 0.086144
vt 0.462268 0.383066
vt 0.915271 0.082377
vt 0.733653 0.451674
vt 0.881015 0.324903
vt 0.733653 0.135175
vt 0.156250 0.500000
vt 0.881015 0.261947
vt 0.829685 0.179333
vt 0.801263 0.159267
vt 0.660472 0.135175
vt 0.592862 0.159267
vt 0.541116 0.203784
vt 0.513111 0.261947
vt 0.513111 0.324903
vt 0.541116 0.383066
vt 0.592862 0.427582
vn -0.9819 0.0891 0.1673
vn -0.9969 0.0790 0.0000
vn -0.9779 0.0795 0.1936
vn 0.4143 0.0665 0.9077
vn 0.3829 0.0686 0.9212
vn 0.3818 0.0687 0.9217
vn -0.3818 0.0668 0.9218
vn -0.5831 0.0810 0.8083
vn -0.5559 0.0720 0.8281
vn 0.8555 0.0803 0.5116
vn 0.8491 0.0805 0.5221
vn 0.7717 0.0753 0.6315
vn 0.0000 1.0000 0.0000
vn 0.6328 0.0715 0.7710
vn 0.9819 0.0891 -0.1673
vn 0.9969 0.0790 0.0000
vn 0.9779 0.0795 -0.1936
vn 0.0000 -1.0000 0.0000
vn -0.9212 0.0762 0.3816
vn -0.9784 0.0890 0.1866
vn -0.4143 0.0665 -0.9077
vn -0.3829 0.0686 -0.9212
vn -0.3818 0.0687 -0.9217
vn 0.5831 0.0810 -0.8083
vn 0.5988 0.0813 -0.7967
vn 0.5559 0.0720 -0.8281
vn 0.0000 0.0658 0.9978
vn 0.0000 0.0658 -0.9978
vn 0.4161 0.0664 0.9069
vn -0.5988 0.0813 0.7967
vn -0.7052 0.0737 0.7052
vn 0.9212 0.0762 -0.3816
vn 0.9784 0.0890 -0.1866
vn 0.7052 0.0737 -0.7052
vn 0.8794 0.0759 0.4700
vn 0.3818 0.0668 -0.9218
vn -0.4161 0.0664 -0.9069
vn -0.8468 0.0857 -0.5249
vn -0.7053 0.0711 -0.7053
vn -0.8302 0.0764 -0.5521
vn -0.9211 0.0780 -0.3815
vn -0.8569 0.0860 -0.5082
usemtl color_texutere
s 1
f 20/1/1 21/2/2 19/3/3
f 10/4/4 13/5/5 11/6/6
f 15/7/7 14/8/8 16/9/9
f 7/10/10 10/4/11 9/11/12
f 1/12/13 25/13/13 23/14/13
f 10/4/11 11/6/14 9/11/12
f 14/15/13 12/16/13 10/17/13
f 7/10/15 8/18/16 6/19/17
f 3/20/18 5/21/18 26/22/18
f 18/23/19 17/24/20 19/3/3
f 20/25/13 17/26/13 7/27/13
f 23/28/21 26/29/22 24/30/23
f 1/31/24 4/32/25 3/33/26
f 14/8/27 13/5/27 12/34/27
f 25/35/28 1/31/28 2/36/28
f 25/35/28 2/36/28 26/29/28
f 14/8/27 15/7/27 13/5/27
f 10/4/4 12/34/29 13/5/5
f 14/8/8 17/37/30 16/9/9
f 17/37/30 18/38/31 16/9/9
f 23/14/13 20/25/13 4/39/13
f 5/40/32 4/32/33 6/19/17
f 10/17/13 7/27/13 17/26/13
f 4/32/33 7/10/15 6/19/17
f 26/22/18 2/41/18 3/20/18
f 4/32/25 5/40/34 3/33/26
f 17/26/13 14/15/13 10/17/13
f 8/18/35 7/10/10 9/11/12
f 4/39/13 1/12/13 23/14/13
f 17/24/20 20/1/1 19/3/3
f 7/27/13 4/39/13 20/25/13
f 2/36/36 1/31/24 3/33/26
f 23/28/21 25/35/37 26/29/22
f 26/22/18 6/42/18 13/43/18
f 23/28/38 24/30/39 22/44/40
f 5/21/18 6/42/18 26/22/18
f 6/42/18 8/45/18 9/46/18
f 9/46/18 11/47/18 6/42/18
f 11/47/18 13/43/18 6/42/18
f 13/43/18 15/48/18 16/49/18
f 16/49/18 18/50/18 19/51/18
f 19/51/18 21/52/18 22/53/18
f 22/53/18 24/54/18 26/22/18
f 13/43/18 16/49/18 26/22/18
f 16/49/18 19/51/18 26/22/18
f 19/51/18 22/53/18 26/22/18
f 21/2/41 20/1/42 22/44/40
f 20/1/42 23/28/38 22/44/40
o Cone
v 1.090346 5.519229 -0.004786
v 1.090346 6.079708 0.835186
v 1.237168 5.519229 0.011353
v 1.508460 5.519229 0.136774
v 1.716098 5.519229 0.368522
v 1.828471 5.519229 0.671315
v 1.828471 5.519229 0.999057
v 1.716098 5.519229 1.301850
v 1.508460 5.519229 1.533598
v 1.237168 5.519229 1.659019
v 1.090346 5.519229 1.675159
v 0.943524 5.519229 1.659019
v 0.672231 5.519229 1.533597
v 0.464594 5.519229 1.301850
v 0.352221 5.519229 0.999057
v 0.352221 5.519229 0.671315
v 0.464594 5.519229 0.368522
v 0.672231 5.519229 0.136774
v 0.943524 5.519229 0.011353
vt 0.250000 0.250000
vt 0.250000 0.010000
vt 0.296822 0.014612
vt 0.116663 0.050447
vt 0.203178 0.014612
vt 0.949553 0.383337
vt 0.985388 0.296822
vt 0.514612 0.296822
vt 0.203178 0.485388
vt 0.250000 0.490000
vt 0.796822 0.014612
vt 0.750000 0.010000
vt 0.703178 0.014612
vt 0.383337 0.050447
vt 0.514612 0.203178
vt 0.050447 0.116663
vt 0.550447 0.383337
vt 0.014612 0.203178
vt 0.550447 0.116663
vt 0.985388 0.203178
vt 0.449553 0.383337
vt 0.383337 0.449553
vt 0.883337 0.050447
vt 0.616663 0.050447
vt 0.449553 0.116663
vt 0.485388 0.203178
vt 0.703178 0.485388
vt 0.883337 0.449553
vt 0.616663 0.449553
vt 0.485388 0.296822
vt 0.750000 0.490000
vt 0.796822 0.485388
vt 0.296822 0.485388
vt 0.949553 0.116663
vt 0.116663 0.449553
vt 0.014612 0.296822
vt 0.050447 0.383337
vn -0.0000 0.8318 0.5550
vn 0.0609 0.8303 0.5540
vn -0.3339 0.8226 0.4602
vn -0.2389 0.8221 0.5167
vn -0.3426 0.8221 0.4546
vn 0.0000 -1.0000 0.0000
vn -0.1456 0.8299 -0.5386
vn -0.1219 0.8330 -0.5396
vn 0.0000 0.8318 -0.5550
vn 0.3426 0.8221 0.4546
vn 0.2389 0.8221 0.5167
vn 0.3339 0.8226 0.4602
vn -0.4355 0.8112 0.3902
vn -0.5861 0.8031 0.1072
vn -0.5617 0.8007 0.2085
vn -0.5868 0.8031 0.1034
vn 0.4982 0.8112 -0.3063
vn 0.3339 0.8226 -0.4602
vn 0.4261 0.8249 -0.3716
vn 0.5868 0.8031 0.1034
vn 0.5617 0.8007 0.2085
vn 0.5861 0.8031 0.1072
vn 0.6047 0.7964 0.0000
vn 0.0609 0.8303 -0.5540
vn 0.2389 0.8221 -0.5167
vn -0.2389 0.8221 -0.5167
vn -0.6047 0.7964 0.0000
vn -0.5037 0.8107 -0.2983
vn -0.4355 0.8112 -0.3902
vn -0.4982 0.8112 -0.3063
vn 0.5617 0.8007 -0.2085
vn 0.4355 0.8112 0.3902
vn -0.0609 0.8303 0.5540
vn -0.5617 0.8007 -0.2085
usemtl Material.001
s 1
f 28/55/43 37/56/43 36/57/44
f 39/58/45 38/59/46 28/55/47
f 31/60/48 32/61/48 42/62/48
f 45/63/49 28/55/50 27/64/51
f 36/65/48 37/66/48 38/67/48
f 28/55/52 36/57/53 35/68/54
f 41/69/48 42/62/48 32/61/48
f 39/58/45 28/55/47 40/70/55
f 42/62/48 43/71/48 31/60/48
f 41/72/56 40/70/57 28/55/58
f 40/73/48 41/69/48 33/74/48
f 31/75/59 30/76/60 28/55/61
f 35/77/48 36/65/48 39/78/48
f 28/55/62 34/79/63 33/80/64
f 45/81/48 30/82/48 44/83/48
f 28/55/62 33/80/64 32/84/65
f 45/81/48 27/85/48 29/86/48
f 28/55/50 29/87/66 27/64/51
f 30/82/48 31/60/48 44/83/48
f 30/76/60 29/87/67 28/55/61
f 33/74/48 34/88/48 40/73/48
f 44/89/68 28/55/50 45/63/49
f 39/78/48 40/73/48 34/88/48
f 41/72/56 28/55/58 42/90/69
f 28/55/70 44/89/71 43/91/72
f 32/84/73 31/75/59 28/55/61
f 39/78/48 36/65/48 38/67/48
f 28/55/52 35/68/54 34/79/74
f 34/88/48 35/77/48 39/78/48
f 28/55/43 38/59/75 37/56/43
f 43/71/48 44/83/48 31/60/48
f 32/61/48 33/74/48 41/69/48
f 29/86/48 30/82/48 45/81/48
f 28/55/70 43/91/72 42/90/76
o Cylinder.001_Cylinder.003
v 0.855179 5.511458 1.330807
v 0.685795 5.511458 1.200335
v 0.717099 5.129272 1.173040
v 0.579247 5.511458 1.015075
v 0.551755 5.511458 0.803229
v 0.593226 5.129272 0.806053
v 0.607506 5.511458 0.597051
v 0.644748 5.129272 0.615512
v 0.738011 5.511458 0.427928
v 0.923403 5.511458 0.321607
v 0.936686 5.129272 0.360959
v 1.135456 5.511458 0.294277
v 1.341889 5.511458 0.350096
v 1.323431 5.129272 0.387287
v 1.511273 5.511458 0.480567
v 1.617821 5.511458 0.665828
v 1.578435 5.129272 0.679072
v 1.645312 5.511458 0.877673
v 1.589562 5.511458 1.083852
v 1.552320 5.129272 1.065391
v 1.459057 5.511458 1.252975
v 1.431713 5.129272 1.221687
v 1.273665 5.511458 1.359295
v 1.061611 5.511458 1.386626
v 1.064412 5.129272 1.345201
vt 0.798092 0.968781
vt 0.743894 0.968781
vt 0.743894 0.019376
vt 0.120124 0.941294
vt 0.045860 0.941294
vt 0.045860 0.046863
vt 0.050447 -0.529614
vt 0.014612 -0.616129
vt 0.014612 -0.709772
vt 0.194389 0.046863
vt 0.194389 0.941294
vt 0.203178 -0.427562
vt 0.116663 -0.463398
vt 0.116663 -0.862503
vt 0.689695 0.019376
vt 0.097962 0.952904
vt 0.383038 0.966497
vt 0.097962 0.035253
vt 0.203999 0.966497
vt 0.203999 0.021660
vt 0.293518 0.021660
vt 0.527099 0.968781
vt 0.472901 0.968781
vt 0.472901 0.019376
vt 0.194008 0.951627
vt 0.293518 0.966497
vt 0.383337 -0.463398
vt 0.296822 -0.427562
vt 0.296822 -0.898339
vt 0.203178 -0.898339
vt 0.383337 -0.862503
vt 0.852291 0.968781
vt 0.852291 0.019376
vt 0.050447 -0.796287
vt 0.689695 0.968781
vt 0.635496 0.968781
vt 0.581298 0.019376
vt 0.581298 0.968781
vt 0.449553 -0.529614
vt 0.449553 -0.796287
vt 0.550447 -0.476386
vt 0.514612 -0.296227
vt 0.550447 -0.209712
vt 0.906489 0.968781
vt 0.485388 -0.709772
vt 0.485388 -0.616129
vt 0.703178 -0.107660
vt 0.703178 -0.578437
vt 0.883337 -0.143496
vt 0.985388 -0.296227
vt 0.985388 -0.389870
vt 0.883337 -0.542601
vn -0.9385 -0.1376 0.3167
vn -0.9861 -0.1061 0.1280
vn -0.9508 -0.1747 0.2559
vn 0.3158 -0.1376 0.9388
vn 0.1271 -0.1060 0.9862
vn 0.2549 -0.1746 0.9511
vn 0.0000 1.0000 -0.0000
vn 0.3716 -0.1747 0.9118
vn 0.4947 -0.1060 0.8626
vn -0.9599 -0.1061 -0.2596
vn 0.9861 -0.1061 -0.1280
vn 0.9882 -0.1377 0.0668
vn 0.9846 -0.1748 0.0048
vn 0.7872 -0.1061 0.6075
vn 0.0673 -0.1375 -0.9882
vn 0.2596 -0.1059 -0.9599
vn 0.1281 -0.1746 -0.9763
vn 0.6068 -0.1060 -0.7878
vn 0.7458 -0.1376 -0.6518
vn 0.6994 -0.1746 -0.6930
vn 0.9599 -0.1061 0.2595
vn 0.9763 -0.1748 0.1277
vn 0.7804 -0.1747 -0.6003
vn -0.8620 -0.1060 0.4957
vn -0.9114 -0.1747 0.3726
vn 0.8620 -0.1060 -0.4957
vn -0.6922 -0.1747 -0.7002
vn -0.7872 -0.1061 -0.6075
vn -0.6510 -0.1376 -0.7465
vn 0.0054 -0.1746 -0.9846
vn -0.1271 -0.1060 -0.9862
vn -0.4947 -0.1060 -0.8626
vn -0.5994 -0.1747 -0.7811
vn 0.0000 -1.0000 0.0000
vn -0.3813 -0.1746 0.9078
vn -0.4399 -0.1375 0.8874
vn -0.4916 -0.1746 0.8532
vn -0.2596 -0.1059 0.9599
vn -0.6068 -0.1060 0.7878
usemtl window
s 1
f 49/92/77 50/93/78 51/94/79
f 68/95/80 69/96/81 70/97/82
f 66/98/83 64/99/83 63/100/83
f 67/101/84 66/102/85 68/95/80
f 69/103/83 68/104/83 60/105/83
f 50/93/86 53/106/86 51/94/86
f 61/107/87 63/108/88 62/109/89
f 66/110/90 67/111/90 65/112/90
f 57/113/91 58/114/92 59/115/93
f 58/114/94 60/116/95 59/115/96
f 63/108/88 64/117/97 65/112/98
f 66/110/90 65/112/90 64/117/90
f 47/118/83 46/119/83 57/120/83
f 59/115/96 60/116/95 62/109/99
f 60/105/83 58/121/83 69/103/83
f 68/95/80 70/97/82 67/101/84
f 57/120/83 55/122/83 47/118/83
f 47/123/100 49/92/77 48/124/101
f 63/100/83 61/125/83 66/98/83
f 48/124/101 49/92/77 51/94/79
f 46/119/83 69/103/83 57/120/83
f 60/116/95 61/107/102 62/109/99
f 53/106/103 52/126/104 54/127/105
f 57/113/91 59/115/93 56/128/106
f 56/128/106 55/129/107 57/113/91
f 50/93/86 52/126/86 53/106/86
f 54/127/105 55/129/108 56/128/109
f 62/109/89 63/108/88 65/112/98
f 68/104/83 66/98/83 60/105/83
f 54/127/105 56/128/109 53/106/103
f 49/130/83 47/118/83 54/131/83
f 61/125/83 60/105/83 66/98/83
f 58/121/83 57/120/83 69/103/83
f 62/132/110 65/133/110 67/134/110
f 70/97/111 46/135/112 48/124/113
f 55/122/83 54/131/83 47/118/83
f 54/131/83 52/136/83 50/137/83
f 50/137/83 49/130/83 54/131/83
f 67/134/110 70/138/110 59/139/110
f 70/138/110 48/140/110 59/139/110
f 48/140/110 51/141/110 53/142/110
f 53/142/110 56/143/110 48/140/110
f 56/143/110 59/139/110 48/140/110
f 59/139/110 62/132/110 67/134/110
f 69/96/114 46/135/112 70/97/111
f 46/135/112 47/123/115 48/124/113
